#!OML:ASF E:\Steps\Project 1\Capture day 1\Session 2\Subject.ASF
:FULLY-SPECIFIED
:DEGREES
182
root 9.27026 16.2353 30.9509 -151.145 -1.51676 176.705
lowerback -27.6509 -1.08904 -6.01879
upperback -1.73651 -0.104578 -0.43317
thorax 13.4799 -0.657981 2.87604
lowerneck -4.34666 -2.21702 -1.41424
upperneck 19.2265 -4.76321 3.43496
head 6.67452 -2.58678 0.947328
rclavicle -3.29548e-015 6.53505e-015
rhumerus -38.4472 -19.6719 -75.5098
rradius 34.8272
rwrist -2.03631
rhand -7.62179 -52.0546
rfingers 7.12502
rthumb 18.2727 -81.2163
lclavicle -3.29548e-015 6.53505e-015
lhumerus -29.4643 6.09093 80.7126
lradius 26.8436
lwrist -5.32842
lhand -22.0069 -11.8397
lfingers 7.12502
lthumb 4.4021 18.0945
rfemur -24.9278 5.64878 20.5052
rtibia 8.51719
rfoot -22.5652 -10.5316
rtoes -28.773
lfemur -39.9035 -11.8216 -17.7103
ltibia 35.6076
lfoot -13.0762 5.8561
ltoes -45.0351
183
root 9.27417 16.2343 30.9403 -151.154 -1.48138 176.743
lowerback -27.6061 -0.989767 -5.9799
upperback -1.69978 0.019708 -0.431645
thorax 13.4877 -0.597114 2.90368
lowerneck -4.25164 -2.2479 -1.56535
upperneck 18.9701 -4.77522 3.57874
head 6.58256 -2.58532 1.02211
rclavicle -9.94583e-015 2.70502e-014
rhumerus -38.1505 -19.6289 -75.6652
rradius 34.8302
rwrist -1.99052
rhand -7.61567 -52.2311
rfingers 7.12502
rthumb 18.2786 -81.3923
lclavicle -9.94583e-015 2.70502e-014
lhumerus -30.8084 6.67384 80.653
lradius 29.1561
lwrist -5.95667
lhand -21.4686 -10.8267
lfingers 7.12502
lthumb 4.92184 19.0961
rfemur -25.0224 4.81389 20.7527
rtibia 8.75637
rfoot -23.5315 -9.58957
rtoes -27.2955
lfemur -40.8291 -11.7244 -17.6935
ltibia 37.2547
lfoot -12.4119 5.97625
ltoes -45.9984
184
root 9.28502 16.2332 30.9251 -151.203 -1.41835 176.757
lowerback -27.6389 -0.919447 -6.0728
upperback -1.64074 0.156306 -0.454515
thorax 13.5621 -0.540761 2.98354
lowerneck -4.05419 -2.22957 -1.62286
upperneck 18.6881 -4.73595 3.72894
head 6.46138 -2.55664 1.08854
rclavicle 2.95537e-015 -6.45584e-015
rhumerus -37.9527 -19.4684 -75.9197
rradius 34.9781
rwrist -2.18292
rhand -7.57884 -52.4773
rfingers 7.12502
rthumb 18.314 -81.6351
lclavicle 2.95537e-015 -6.45584e-015
lhumerus -30.7234 6.58221 80.7053
lradius 29.0054
lwrist -5.92233
lhand -21.4574 -10.7927
lfingers 7.12502
lthumb 4.93269 19.1299
rfemur -24.9512 4.95108 20.7467
rtibia 8.76068
rfoot -22.8015 -9.73891
rtoes -29.1252
lfemur -41.6838 -11.5505 -17.6687
ltibia 38.9059
lfoot -11.8676 5.89599
ltoes -45.0646
185
root 9.29268 16.2325 30.9129 -151.256 -1.42317 176.714
lowerback -27.6081 -0.884742 -6.18186
upperback -1.59475 0.246782 -0.483356
thorax 13.5909 -0.504513 3.04806
lowerneck -3.89528 -2.23419 -1.5638
upperneck 18.4823 -4.71967 3.71384
head 6.36598 -2.54432 1.07983
rclavicle 9.97806e-017 9.16273e-016
rhumerus -37.85 -19.2247 -76.1292
rradius 35.1674
rwrist -2.3879
rhand -7.25903 -52.3161
rfingers 7.12502
rthumb 18.6217 -81.4448
lclavicle 9.97806e-017 9.16273e-016
lhumerus -30.7429 6.45885 80.7667
lradius 28.9635
lwrist -5.83104
lhand -21.0423 -11.2407
lfingers 7.12502
lthumb 5.3335 18.6722
rfemur -24.8352 4.99494 20.7108
rtibia 8.73938
rfoot -22.7406 -9.81766
rtoes -28.5078
lfemur -42.537 -11.4117 -17.713
ltibia 40.5008
lfoot -11.3494 5.78502
ltoes -45.6928
186
root 9.29639 16.2312 30.9044 -151.248 -1.44477 176.612
lowerback -27.4962 -0.875533 -6.30084
upperback -1.607 0.290951 -0.507789
thorax 13.5107 -0.488036 3.10503
lowerneck -3.94036 -2.32066 -1.44569
upperneck 18.5564 -4.82223 3.5168
head 6.39337 -2.59977 0.989168
rclavicle 1.90088e-015 -3.8763e-015
rhumerus -37.7919 -18.9186 -76.3232
rradius 35.4035
rwrist -2.50989
rhand -6.90733 -52.372
rfingers 7.12502
rthumb 18.96 -81.468
lclavicle 1.90088e-015 -3.8763e-015
lhumerus -30.852 6.3247 80.8446
lradius 28.9891
lwrist -5.69078
lhand -21.179 -11.2852
lfingers 7.12502
lthumb 5.20147 18.631
rfemur -24.7607 4.88087 20.6419
rtibia 8.7037
rfoot -22.9124 -9.78667
rtoes -27.9824
lfemur -43.4653 -11.409 -17.8124
ltibia 42.052
lfoot -11.1453 5.47531
ltoes -41.952
187
root 9.29882 16.2282 30.8929 -151.217 -1.36864 176.487
lowerback -27.3891 -0.858368 -6.46696
upperback -1.66042 0.349939 -0.523312
thorax 13.3818 -0.468521 3.20455
lowerneck -4.01645 -2.47139 -1.46603
upperneck 18.6354 -5.02644 3.45813
head 6.43666 -2.7033 0.957511
rclavicle 8.89251e-015 1.16041e-014
rhumerus -37.7412 -18.5538 -76.4925
rradius 35.6149
rwrist -2.6023
rhand -6.77695 -52.6016
rfingers 7.12502
rthumb 19.0853 -81.6852
lclavicle 8.89251e-015 1.16041e-014
lhumerus -31.0868 6.26414 80.9192
lradius 29.0333
lwrist -5.58867
lhand -21.2242 -10.9895
lfingers 7.12502
lthumb 5.15791 18.9277
rfemur -24.6653 5.00688 20.4665
rtibia 8.53864
rfoot -23.0327 -9.89899
rtoes -27.9184
lfemur -44.3261 -11.4994 -17.9548
ltibia 43.4964
lfoot -11.0806 5.59938
ltoes -41.9991
188
root 9.30204 16.2263 30.8799 -151.249 -1.21982 176.38
lowerback -27.2716 -0.804793 -6.64466
upperback -1.67045 0.469038 -0.551257
thorax 13.2922 -0.421295 3.31916
lowerneck -3.89117 -2.35522 -1.36474
upperneck 18.567 -4.85361 3.37104
head 6.38379 -2.62105 0.928146
rclavicle -4.67765e-015 1.80397e-014
rhumerus -37.5323 -18.3794 -76.6082
rradius 35.602
rwrist -2.47929
rhand -6.78621 -52.5482
rfingers 7.12502
rthumb 19.0764 -81.6327
lclavicle -4.67765e-015 1.80397e-014
lhumerus -31.2836 6.20239 80.9754
lradius 28.9774
lwrist -5.57223
lhand -21.2132 -10.8941
lfingers 7.12502
lthumb 5.16853 19.0229
rfemur -24.5143 5.1408 20.3073
rtibia 8.38455
rfoot -22.9381 -9.97485
rtoes -28.1742
lfemur -45.1735 -11.3743 -18.1743
ltibia 44.8624
lfoot -10.8999 5.68779
ltoes -42.5991
189
root 9.30575 16.2286 30.8664 -151.327 -1.16523 176.27
lowerback -27.2093 -0.811763 -6.78229
upperback -1.58225 0.518924 -0.579894
thorax 13.3571 -0.404579 3.38462
lowerneck -3.65413 -2.38079 -1.4394
upperneck 18.1062 -4.84508 3.51065
head 6.20086 -2.60511 0.994658
rclavicle 5.77097e-015 -2.33572e-015
rhumerus -37.0812 -18.244 -76.8217
rradius 35.4637
rwrist -2.22329
rhand -6.8704 -52.2856
rfingers 7.12502
rthumb 18.9955 -81.378
lclavicle 5.77097e-015 -2.33572e-015
lhumerus -31.3303 6.30212 80.9432
lradius 28.8499
lwrist -5.68747
lhand -21.2278 -11.2438
lfingers 7.12502
lthumb 5.15438 18.6735
rfemur -24.2922 5.14501 20.193
rtibia 8.2367
rfoot -22.8517 -9.97392
rtoes -28.1349
lfemur -45.5968 -11.2026 -18.4097
ltibia 45.7658
lfoot -10.62 5.71057
ltoes -44.9037
190
root 9.30846 16.2307 30.8513 -151.41 -1.18163 176.164
lowerback -27.1021 -0.858351 -6.90955
upperback -1.52427 0.501766 -0.577215
thorax 13.3688 -0.417221 3.45465
lowerneck -3.7209 -2.39223 -1.52944
upperneck 18.0776 -4.85563 3.58994
head 6.20754 -2.60648 1.03321
rclavicle 1.39149e-015 9.49197e-015
rhumerus -36.7238 -17.9904 -77.0489
rradius 35.4338
rwrist -1.97658
rhand -6.98959 -52.3178
rfingers 7.12502
rthumb 18.8808 -81.4215
lclavicle 1.39149e-015 9.49197e-015
lhumerus -31.4494 6.58463 80.891
lradius 28.7531
lwrist -5.95656
lhand -21.3667 -11.5963
lfingers 7.12502
lthumb 5.02029 18.3242
rfemur -24.0454 5.00438 20.1368
rtibia 8.09402
rfoot -22.8184 -9.90703
rtoes -28.151
lfemur -46.1508 -11.1534 -18.5917
ltibia 46.6679
lfoot -10.5686 5.81319
ltoes -45.8822
191
root 9.3137 16.2271 30.8386 -151.388 -1.19103 176.178
lowerback -26.9694 -0.837686 -7.00426
upperback -1.57517 0.535311 -0.528539
thorax 13.2309 -0.404444 3.57723
lowerneck -3.8936 -2.3312 -1.57831
upperneck 18.3281 -4.78738 3.56405
head 6.31549 -2.57896 1.0323
rclavicle 4.17448e-015 5.76476e-015
rhumerus -36.5895 -17.6546 -77.2271
rradius 35.6075
rwrist -1.89712
rhand -7.19251 -52.7422
rfingers 7.12502
rthumb 18.6857 -81.8647
lclavicle 4.17448e-015 5.76476e-015
lhumerus -31.6389 6.80369 80.9138
lradius 28.6184
lwrist -6.27321
lhand -21.5346 -11.5995
lfingers 7.12502
lthumb 4.8582 18.3248
rfemur -23.9588 4.89851 20.2381
rtibia 8.01231
rfoot -22.8095 -9.84507
rtoes -28.4576
lfemur -46.924 -10.8948 -18.6256
ltibia 47.6473
lfoot -11.0176 5.6108
ltoes -44.4624
192
root 9.31543 16.2236 30.8112 -151.602 -1.04888 176.454
lowerback -26.8146 -0.651402 -6.77658
upperback -1.51914 0.712072 -0.494854
thorax 13.1965 -0.304807 3.55116
lowerneck -4.0521 -2.32151 -1.58993
upperneck 18.5785 -4.80196 3.56488
head 6.42355 -2.58832 1.02822
rclavicle 4.53478e-015 4.96962e-017
rhumerus -36.4556 -17.3409 -77.49
rradius 35.8516
rwrist -1.82982
rhand -7.36588 -52.9841
rfingers 7.12502
rthumb 18.5189 -82.1226
lclavicle 4.53478e-015 4.96962e-017
lhumerus -31.8791 6.67684 80.9758
lradius 28.6655
lwrist -6.20894
lhand -21.7073 -11.014
lfingers 7.12502
lthumb 4.69144 18.914
rfemur -23.571 4.92801 20.5818
rtibia 7.8494
rfoot -22.7639 -9.65637
rtoes -28.4916
lfemur -47.3018 -10.4427 -18.4652
ltibia 48.3158
lfoot -11.3603 5.49772
ltoes -43.4665
193
root 9.32062 16.2206 30.7865 -151.913 -0.915597 176.843
lowerback -26.4923 -0.439427 -6.46552
upperback -1.42632 0.893386 -0.421085
thorax 13.116 -0.193316 3.52329
lowerneck -4.1534 -2.31861 -1.6668
upperneck 18.5623 -4.78833 3.63473
head 6.43897 -2.57582 1.06287
rclavicle 7.03201e-015 1.00883e-014
rhumerus -36.2027 -17.1317 -77.7119
rradius 36.0057
rwrist -1.62512
rhand -7.40766 -53.3254
rfingers 7.12502
rthumb 18.4787 -82.4677
lclavicle 7.03201e-015 1.00883e-014
lhumerus -32.094 6.34043 81.0761
lradius 28.7844
lwrist -5.83953
lhand -21.8303 -10.2527
lfingers 7.12502
lthumb 4.57265 19.678
rfemur -23.1212 5.35587 21.0003
rtibia 7.74713
rfoot -22.7245 -9.80099
rtoes -28.4811
lfemur -47.8985 -10.0341 -18.0822
ltibia 49.3665
lfoot -11.7283 5.69269
ltoes -43.5894
